<?xml version="1.0" standalone="no"?>
<!DOCTYPE svg PUBLIC "-//W3C//DTD SVG 20010904//EN"
 "http://www.w3.org/TR/2001/REC-SVG-20010904/DTD/svg10.dtd">
<svg version="1.0" xmlns="http://www.w3.org/2000/svg"
 width="162.000000pt" height="162.000000pt" viewBox="0 0 162.000000 162.000000"
 preserveAspectRatio="xMidYMid meet">
<metadata>
Created by potrace 1.14, written by Peter Selinger 2001-2017
</metadata>
<g transform="translate(0.000000,162.000000) scale(0.100000,-0.100000)"
fill="#000000" stroke="none">
<path d="M658 1534 c-42 -22 -69 -87 -46 -109 4 -4 86 9 174 30 29 6 24 42
-10 72 -31 27 -77 30 -118 7z"/>
<path d="M692 1400 c-219 -44 -277 -59 -288 -74 -18 -25 -18 -31 2 -51 19 -18
7 -19 249 28 99 20 191 38 205 41 91 17 137 27 153 32 26 8 40 40 27 64 -15
27 -22 26 -348 -40z"/>
<path d="M396 1212 c-4 -3 -6 -50 -6 -104 0 -71 3 -98 13 -99 6 -1 68 -3 137
-4 69 -1 130 -3 135 -4 6 -1 10 -130 9 -366 l-1 -365 134 0 133 0 2 368 3 367
142 0 142 -1 3 36 c2 19 2 67 0 106 l-3 72 -419 0 c-231 0 -421 -3 -424 -6z"/>
</g>
</svg>
